<svg width="18" height="17" viewBox="0 0 18 17" fill="none" xmlns="http://www.w3.org/2000/svg">
<path d="M9.75956 7.78578V15.5001C9.75956 15.6706 9.69225 15.8341 9.57243 15.9546C9.45261 16.0752 9.29011 16.1429 9.12066 16.1429C8.95121 16.1429 8.7887 16.0752 8.66889 15.9546C8.54907 15.8341 8.48176 15.6706 8.48176 15.5001V7.78578C8.48176 7.61529 8.54907 7.45177 8.66889 7.33122C8.7887 7.21066 8.95121 7.14293 9.12066 7.14293C9.29011 7.14293 9.45261 7.21066 9.57243 7.33122C9.69225 7.45177 9.75956 7.61529 9.75956 7.78578ZM14.8708 13.5715C14.7013 13.5715 14.5388 13.6392 14.419 13.7598C14.2992 13.8803 14.2319 14.0439 14.2319 14.2144V15.5001C14.2319 15.6706 14.2992 15.8341 14.419 15.9546C14.5388 16.0752 14.7013 16.1429 14.8708 16.1429C15.0402 16.1429 15.2027 16.0752 15.3225 15.9546C15.4424 15.8341 15.5097 15.6706 15.5097 15.5001V14.2144C15.5097 14.0439 15.4424 13.8803 15.3225 13.7598C15.2027 13.6392 15.0402 13.5715 14.8708 13.5715ZM16.7875 11.0001H15.5097V1.35721C15.5097 1.18672 15.4424 1.0232 15.3225 0.902644C15.2027 0.782085 15.0402 0.714355 14.8708 0.714355C14.7013 0.714355 14.5388 0.782085 14.419 0.902644C14.2992 1.0232 14.2319 1.18672 14.2319 1.35721V11.0001H12.9541C12.7846 11.0001 12.6221 11.0678 12.5023 11.1884C12.3825 11.3089 12.3152 11.4724 12.3152 11.6429C12.3152 11.8134 12.3825 11.9769 12.5023 12.0975C12.6221 12.2181 12.7846 12.2858 12.9541 12.2858H16.7875C16.9569 12.2858 17.1194 12.2181 17.2392 12.0975C17.3591 11.9769 17.4264 11.8134 17.4264 11.6429C17.4264 11.4724 17.3591 11.3089 17.2392 11.1884C17.1194 11.0678 16.9569 11.0001 16.7875 11.0001ZM3.37055 11.0001C3.2011 11.0001 3.0386 11.0678 2.91878 11.1884C2.79896 11.3089 2.73165 11.4724 2.73165 11.6429V15.5001C2.73165 15.6706 2.79896 15.8341 2.91878 15.9546C3.0386 16.0752 3.2011 16.1429 3.37055 16.1429C3.54 16.1429 3.7025 16.0752 3.82232 15.9546C3.94214 15.8341 4.00945 15.6706 4.00945 15.5001V11.6429C4.00945 11.4724 3.94214 11.3089 3.82232 11.1884C3.7025 11.0678 3.54 11.0001 3.37055 11.0001ZM5.28725 8.42864H4.00945V1.35721C4.00945 1.18672 3.94214 1.0232 3.82232 0.902644C3.7025 0.782085 3.54 0.714355 3.37055 0.714355C3.2011 0.714355 3.0386 0.782085 2.91878 0.902644C2.79896 1.0232 2.73165 1.18672 2.73165 1.35721V8.42864H1.45385C1.2844 8.42864 1.12189 8.49637 1.00207 8.61693C0.882258 8.73749 0.814945 8.901 0.814945 9.0715C0.814945 9.24199 0.882258 9.40551 1.00207 9.52607C1.12189 9.64663 1.2844 9.71436 1.45385 9.71436H5.28725C5.4567 9.71436 5.61921 9.64663 5.73902 9.52607C5.85884 9.40551 5.92615 9.24199 5.92615 9.0715C5.92615 8.901 5.85884 8.73749 5.73902 8.61693C5.61921 8.49637 5.4567 8.42864 5.28725 8.42864ZM11.0374 4.5715H9.75956V1.35721C9.75956 1.18672 9.69225 1.0232 9.57243 0.902644C9.45261 0.782085 9.29011 0.714355 9.12066 0.714355C8.95121 0.714355 8.7887 0.782085 8.66889 0.902644C8.54907 1.0232 8.48176 1.18672 8.48176 1.35721V4.5715H7.20396C7.03451 4.5715 6.872 4.63923 6.75218 4.75979C6.63237 4.88035 6.56505 5.04386 6.56505 5.21436C6.56505 5.38485 6.63237 5.54836 6.75218 5.66892C6.872 5.78948 7.03451 5.85721 7.20396 5.85721H11.0374C11.2068 5.85721 11.3693 5.78948 11.4891 5.66892C11.609 5.54836 11.6763 5.38485 11.6763 5.21436C11.6763 5.04386 11.609 4.88035 11.4891 4.75979C11.3693 4.63923 11.2068 4.5715 11.0374 4.5715Z" fill="black"/>
</svg>
